# xmcd CD database file
#
# Track frame offsets:
#	183
#	24845
#	34758
#	49353
#	59428
#	72358
#	84288
#	96503
#	115728
#	126293
#	137893
#	148390
#	163133
#	175280
#	187573
#
# Disc length: 2601 seconds
#
# Revision: 1
# Processed by: cddbd v1.5.2PL0 Copyright (c) Steve Scherf et al.
# Submitted via: CDex 1.51
#
DISCID=d70a270f
DTITLE=Count Basie - Featuring Anita O'Day - and The Tadd Dameron Trio  {1945-1948}
DYEAR=1993
DGENRE=Jazz
TTITLE0=High Tide   [1945]
TTITLE1=The Peacock   [1948]
TTITLE2=Swedish Pastry   [1948]
TTITLE3=Spasmodic   [1948]
TTITLE4=Robbin's Nest   [1948]
TTITLE5=How High The Moon   [1948]
TTITLE6=Malaguena   [1948]
TTITLE7=High Tide   [1948]
TTITLE8=San Jose   [1948]
TTITLE9=Boot Whip   [1948]
TTITLE10=That's That   [1948]
TTITLE11=The King   [1948]
TTITLE12=Malaguena   [1948]
TTITLE13=What Is The Thing Called Love   [1948]
TTITLE14=September In The Rain   [1948]
EXTD=YEAR: 1993
EXTT0=
EXTT1=
EXTT2=
EXTT3=
EXTT4=
EXTT5=
EXTT6=
EXTT7=
EXTT8=
EXTT9=
EXTT10=
EXTT11=
EXTT12=
EXTT13=
EXTT14=
PLAYORDER=
